<mxfile host="app.diagrams.net" modified="2023-05-22T09:31:27.093Z" agent="Mozilla/5.0 (Windows NT 10.0; Win64; x64) AppleWebKit/537.36 (KHTML, like Gecko) Chrome/109.0.0.0 Safari/537.36" etag="-Ij283MlQ-CKf1mAeAi3" version="21.3.2" type="github">
  <diagram id="C5RBs43oDa-KdzZeNtuy" name="Page-1">
    <mxGraphModel dx="2868" dy="1592" grid="1" gridSize="10" guides="1" tooltips="1" connect="1" arrows="1" fold="1" page="1" pageScale="1" pageWidth="827" pageHeight="1169" math="0" shadow="0">
      <root>
        <mxCell id="WIyWlLk6GJQsqaUBKTNV-0" />
        <mxCell id="WIyWlLk6GJQsqaUBKTNV-1" parent="WIyWlLk6GJQsqaUBKTNV-0" />
        <mxCell id="12bo6SRUKf3WOZoB-9gU-0" value="" style="rounded=0;whiteSpace=wrap;html=1;" vertex="1" parent="WIyWlLk6GJQsqaUBKTNV-1">
          <mxGeometry x="235" y="130" width="150" height="220" as="geometry" />
        </mxCell>
        <mxCell id="12bo6SRUKf3WOZoB-9gU-1" style="edgeStyle=orthogonalEdgeStyle;rounded=0;orthogonalLoop=1;jettySize=auto;html=1;entryX=0.5;entryY=0;entryDx=0;entryDy=0;" edge="1" parent="WIyWlLk6GJQsqaUBKTNV-1" source="12bo6SRUKf3WOZoB-9gU-2" target="12bo6SRUKf3WOZoB-9gU-12">
          <mxGeometry relative="1" as="geometry" />
        </mxCell>
        <mxCell id="12bo6SRUKf3WOZoB-9gU-2" value="Figma Project &lt;br&gt;(ID / Link)" style="rounded=0;whiteSpace=wrap;html=1;" vertex="1" parent="WIyWlLk6GJQsqaUBKTNV-1">
          <mxGeometry x="80" y="30" width="120" height="60" as="geometry" />
        </mxCell>
        <mxCell id="12bo6SRUKf3WOZoB-9gU-3" value="" style="endArrow=none;html=1;rounded=0;dashed=1;" edge="1" parent="WIyWlLk6GJQsqaUBKTNV-1">
          <mxGeometry width="50" height="50" relative="1" as="geometry">
            <mxPoint y="120" as="sourcePoint" />
            <mxPoint x="1650" y="120" as="targetPoint" />
          </mxGeometry>
        </mxCell>
        <mxCell id="12bo6SRUKf3WOZoB-9gU-4" value="Figma &lt;br&gt;REST API" style="shape=hexagon;perimeter=hexagonPerimeter2;whiteSpace=wrap;html=1;fixedSize=1;" vertex="1" parent="WIyWlLk6GJQsqaUBKTNV-1">
          <mxGeometry x="250" y="250" width="120" height="80" as="geometry" />
        </mxCell>
        <mxCell id="12bo6SRUKf3WOZoB-9gU-5" value="View" style="text;html=1;align=center;verticalAlign=middle;resizable=0;points=[];autosize=1;strokeColor=none;fillColor=none;rotation=-90;" vertex="1" parent="WIyWlLk6GJQsqaUBKTNV-1">
          <mxGeometry x="-5" y="45" width="50" height="30" as="geometry" />
        </mxCell>
        <mxCell id="12bo6SRUKf3WOZoB-9gU-6" style="edgeStyle=orthogonalEdgeStyle;rounded=0;orthogonalLoop=1;jettySize=auto;html=1;entryX=0;entryY=0.5;entryDx=0;entryDy=0;" edge="1" parent="WIyWlLk6GJQsqaUBKTNV-1" source="12bo6SRUKf3WOZoB-9gU-7" target="12bo6SRUKf3WOZoB-9gU-35">
          <mxGeometry relative="1" as="geometry" />
        </mxCell>
        <mxCell id="12bo6SRUKf3WOZoB-9gU-7" value="Downloadable Angular Project as zip" style="rounded=0;whiteSpace=wrap;html=1;" vertex="1" parent="WIyWlLk6GJQsqaUBKTNV-1">
          <mxGeometry x="1350" y="30" width="140" height="60" as="geometry" />
        </mxCell>
        <mxCell id="12bo6SRUKf3WOZoB-9gU-8" style="edgeStyle=orthogonalEdgeStyle;rounded=0;orthogonalLoop=1;jettySize=auto;html=1;entryX=0;entryY=0.5;entryDx=0;entryDy=0;" edge="1" parent="WIyWlLk6GJQsqaUBKTNV-1" source="12bo6SRUKf3WOZoB-9gU-10" target="12bo6SRUKf3WOZoB-9gU-30">
          <mxGeometry relative="1" as="geometry" />
        </mxCell>
        <mxCell id="12bo6SRUKf3WOZoB-9gU-9" style="edgeStyle=orthogonalEdgeStyle;rounded=0;orthogonalLoop=1;jettySize=auto;html=1;" edge="1" parent="WIyWlLk6GJQsqaUBKTNV-1" source="12bo6SRUKf3WOZoB-9gU-10" target="12bo6SRUKf3WOZoB-9gU-58">
          <mxGeometry relative="1" as="geometry" />
        </mxCell>
        <mxCell id="12bo6SRUKf3WOZoB-9gU-10" value="GenerationController" style="rounded=0;whiteSpace=wrap;html=1;" vertex="1" parent="WIyWlLk6GJQsqaUBKTNV-1">
          <mxGeometry x="950" y="430" width="120" height="60" as="geometry" />
        </mxCell>
        <mxCell id="12bo6SRUKf3WOZoB-9gU-11" style="edgeStyle=orthogonalEdgeStyle;rounded=0;orthogonalLoop=1;jettySize=auto;html=1;entryX=0;entryY=0.5;entryDx=0;entryDy=0;" edge="1" parent="WIyWlLk6GJQsqaUBKTNV-1" source="12bo6SRUKf3WOZoB-9gU-12" target="12bo6SRUKf3WOZoB-9gU-20">
          <mxGeometry relative="1" as="geometry" />
        </mxCell>
        <mxCell id="12bo6SRUKf3WOZoB-9gU-12" value="Figma Reader&lt;br&gt;Component" style="rounded=0;whiteSpace=wrap;html=1;" vertex="1" parent="WIyWlLk6GJQsqaUBKTNV-1">
          <mxGeometry x="80" y="150" width="120" height="60" as="geometry" />
        </mxCell>
        <mxCell id="12bo6SRUKf3WOZoB-9gU-13" value="Java (Jackson)" style="text;html=1;align=center;verticalAlign=middle;resizable=0;points=[];autosize=1;strokeColor=none;fillColor=none;" vertex="1" parent="WIyWlLk6GJQsqaUBKTNV-1">
          <mxGeometry x="40" y="360" width="100" height="30" as="geometry" />
        </mxCell>
        <mxCell id="12bo6SRUKf3WOZoB-9gU-14" value="Controller" style="text;html=1;align=center;verticalAlign=middle;resizable=0;points=[];autosize=1;strokeColor=none;fillColor=none;rotation=-90;" vertex="1" parent="WIyWlLk6GJQsqaUBKTNV-1">
          <mxGeometry x="-20" y="230" width="80" height="30" as="geometry" />
        </mxCell>
        <mxCell id="12bo6SRUKf3WOZoB-9gU-15" value="Model (Backend Service)" style="text;html=1;align=center;verticalAlign=middle;resizable=0;points=[];autosize=1;strokeColor=none;fillColor=none;rotation=-90;" vertex="1" parent="WIyWlLk6GJQsqaUBKTNV-1">
          <mxGeometry x="-60" y="630" width="160" height="30" as="geometry" />
        </mxCell>
        <mxCell id="12bo6SRUKf3WOZoB-9gU-16" value="" style="endArrow=none;dashed=1;html=1;rounded=0;" edge="1" parent="WIyWlLk6GJQsqaUBKTNV-1">
          <mxGeometry width="50" height="50" relative="1" as="geometry">
            <mxPoint y="360" as="sourcePoint" />
            <mxPoint x="1650" y="360" as="targetPoint" />
          </mxGeometry>
        </mxCell>
        <mxCell id="12bo6SRUKf3WOZoB-9gU-17" value="" style="endArrow=none;html=1;rounded=0;" edge="1" parent="WIyWlLk6GJQsqaUBKTNV-1">
          <mxGeometry width="50" height="50" relative="1" as="geometry">
            <mxPoint x="40" y="960" as="sourcePoint" />
            <mxPoint x="40" as="targetPoint" />
          </mxGeometry>
        </mxCell>
        <mxCell id="12bo6SRUKf3WOZoB-9gU-18" style="edgeStyle=orthogonalEdgeStyle;rounded=0;orthogonalLoop=1;jettySize=auto;html=1;entryX=0.5;entryY=0;entryDx=0;entryDy=0;shape=link;" edge="1" parent="WIyWlLk6GJQsqaUBKTNV-1" source="12bo6SRUKf3WOZoB-9gU-20" target="12bo6SRUKf3WOZoB-9gU-4">
          <mxGeometry relative="1" as="geometry" />
        </mxCell>
        <mxCell id="12bo6SRUKf3WOZoB-9gU-19" style="edgeStyle=orthogonalEdgeStyle;rounded=0;orthogonalLoop=1;jettySize=auto;html=1;entryX=0;entryY=0.5;entryDx=0;entryDy=0;" edge="1" parent="WIyWlLk6GJQsqaUBKTNV-1" source="12bo6SRUKf3WOZoB-9gU-20" target="12bo6SRUKf3WOZoB-9gU-24">
          <mxGeometry relative="1" as="geometry" />
        </mxCell>
        <mxCell id="12bo6SRUKf3WOZoB-9gU-20" value="Figma Reader&lt;br&gt;Service" style="rounded=0;whiteSpace=wrap;html=1;" vertex="1" parent="WIyWlLk6GJQsqaUBKTNV-1">
          <mxGeometry x="250" y="150" width="120" height="60" as="geometry" />
        </mxCell>
        <mxCell id="12bo6SRUKf3WOZoB-9gU-21" value="JSON Tree Structure" style="text;html=1;align=center;verticalAlign=middle;resizable=0;points=[];autosize=1;strokeColor=none;fillColor=none;rotation=-90;" vertex="1" parent="WIyWlLk6GJQsqaUBKTNV-1">
          <mxGeometry x="160" y="275" width="130" height="30" as="geometry" />
        </mxCell>
        <mxCell id="12bo6SRUKf3WOZoB-9gU-22" style="edgeStyle=orthogonalEdgeStyle;rounded=0;orthogonalLoop=1;jettySize=auto;html=1;entryX=0.5;entryY=0;entryDx=0;entryDy=0;" edge="1" parent="WIyWlLk6GJQsqaUBKTNV-1" source="12bo6SRUKf3WOZoB-9gU-24" target="12bo6SRUKf3WOZoB-9gU-26">
          <mxGeometry relative="1" as="geometry" />
        </mxCell>
        <mxCell id="12bo6SRUKf3WOZoB-9gU-23" style="edgeStyle=orthogonalEdgeStyle;rounded=0;orthogonalLoop=1;jettySize=auto;html=1;entryX=0.5;entryY=1;entryDx=0;entryDy=0;shape=link;" edge="1" parent="WIyWlLk6GJQsqaUBKTNV-1" source="12bo6SRUKf3WOZoB-9gU-24" target="12bo6SRUKf3WOZoB-9gU-38">
          <mxGeometry relative="1" as="geometry" />
        </mxCell>
        <mxCell id="12bo6SRUKf3WOZoB-9gU-24" value="figma-reader" style="rounded=0;whiteSpace=wrap;html=1;fillColor=#f8cecc;strokeColor=#b85450;" vertex="1" parent="WIyWlLk6GJQsqaUBKTNV-1">
          <mxGeometry x="460" y="150" width="120" height="60" as="geometry" />
        </mxCell>
        <mxCell id="12bo6SRUKf3WOZoB-9gU-25" style="edgeStyle=orthogonalEdgeStyle;rounded=0;orthogonalLoop=1;jettySize=auto;html=1;entryX=0;entryY=0.5;entryDx=0;entryDy=0;" edge="1" parent="WIyWlLk6GJQsqaUBKTNV-1" source="12bo6SRUKf3WOZoB-9gU-26" target="12bo6SRUKf3WOZoB-9gU-55">
          <mxGeometry relative="1" as="geometry" />
        </mxCell>
        <mxCell id="12bo6SRUKf3WOZoB-9gU-26" value="FigmaController" style="rounded=0;whiteSpace=wrap;html=1;fillColor=#fff2cc;strokeColor=#d6b656;" vertex="1" parent="WIyWlLk6GJQsqaUBKTNV-1">
          <mxGeometry x="460" y="430" width="120" height="60" as="geometry" />
        </mxCell>
        <mxCell id="12bo6SRUKf3WOZoB-9gU-27" value="&lt;span style=&quot;color: rgb(0, 0, 0); font-family: Helvetica; font-size: 12px; font-style: normal; font-variant-ligatures: normal; font-variant-caps: normal; font-weight: 400; letter-spacing: normal; orphans: 2; text-align: center; text-indent: 0px; text-transform: none; widows: 2; word-spacing: 0px; -webkit-text-stroke-width: 0px; background-color: rgb(251, 251, 251); text-decoration-thickness: initial; text-decoration-style: initial; text-decoration-color: initial; float: none; display: inline !important;&quot;&gt;(Angular App)&lt;/span&gt;" style="text;whiteSpace=wrap;html=1;rotation=-90;" vertex="1" parent="WIyWlLk6GJQsqaUBKTNV-1">
          <mxGeometry x="-10" y="110" width="80" height="30" as="geometry" />
        </mxCell>
        <mxCell id="12bo6SRUKf3WOZoB-9gU-28" style="edgeStyle=orthogonalEdgeStyle;rounded=0;orthogonalLoop=1;jettySize=auto;html=1;entryX=0.5;entryY=1;entryDx=0;entryDy=0;shape=link;" edge="1" parent="WIyWlLk6GJQsqaUBKTNV-1" source="12bo6SRUKf3WOZoB-9gU-30" target="12bo6SRUKf3WOZoB-9gU-38">
          <mxGeometry relative="1" as="geometry" />
        </mxCell>
        <mxCell id="12bo6SRUKf3WOZoB-9gU-29" style="edgeStyle=orthogonalEdgeStyle;rounded=0;orthogonalLoop=1;jettySize=auto;html=1;entryX=0;entryY=0.5;entryDx=0;entryDy=0;" edge="1" parent="WIyWlLk6GJQsqaUBKTNV-1" source="12bo6SRUKf3WOZoB-9gU-30" target="12bo6SRUKf3WOZoB-9gU-32">
          <mxGeometry relative="1" as="geometry" />
        </mxCell>
        <mxCell id="12bo6SRUKf3WOZoB-9gU-30" value="StyleGuide Project" style="rounded=0;whiteSpace=wrap;html=1;fillColor=#dae8fc;strokeColor=#6c8ebf;" vertex="1" parent="WIyWlLk6GJQsqaUBKTNV-1">
          <mxGeometry x="1160" y="370" width="120" height="60" as="geometry" />
        </mxCell>
        <mxCell id="12bo6SRUKf3WOZoB-9gU-31" style="edgeStyle=orthogonalEdgeStyle;rounded=0;orthogonalLoop=1;jettySize=auto;html=1;entryX=0.5;entryY=1;entryDx=0;entryDy=0;" edge="1" parent="WIyWlLk6GJQsqaUBKTNV-1" source="12bo6SRUKf3WOZoB-9gU-32" target="12bo6SRUKf3WOZoB-9gU-34">
          <mxGeometry relative="1" as="geometry" />
        </mxCell>
        <mxCell id="12bo6SRUKf3WOZoB-9gU-32" value="FigmaController" style="rounded=0;whiteSpace=wrap;html=1;fillColor=#fff2cc;strokeColor=#d6b656;" vertex="1" parent="WIyWlLk6GJQsqaUBKTNV-1">
          <mxGeometry x="1360" y="435" width="120" height="60" as="geometry" />
        </mxCell>
        <mxCell id="12bo6SRUKf3WOZoB-9gU-33" style="edgeStyle=orthogonalEdgeStyle;rounded=0;orthogonalLoop=1;jettySize=auto;html=1;entryX=0.5;entryY=1;entryDx=0;entryDy=0;" edge="1" parent="WIyWlLk6GJQsqaUBKTNV-1" source="12bo6SRUKf3WOZoB-9gU-34" target="12bo6SRUKf3WOZoB-9gU-7">
          <mxGeometry relative="1" as="geometry" />
        </mxCell>
        <mxCell id="12bo6SRUKf3WOZoB-9gU-34" value="downloader" style="rounded=0;whiteSpace=wrap;html=1;fillColor=#f8cecc;strokeColor=#b85450;" vertex="1" parent="WIyWlLk6GJQsqaUBKTNV-1">
          <mxGeometry x="1360" y="150" width="120" height="60" as="geometry" />
        </mxCell>
        <mxCell id="12bo6SRUKf3WOZoB-9gU-35" value="User Github" style="rounded=0;whiteSpace=wrap;html=1;" vertex="1" parent="WIyWlLk6GJQsqaUBKTNV-1">
          <mxGeometry x="1534" y="30" width="120" height="60" as="geometry" />
        </mxCell>
        <mxCell id="12bo6SRUKf3WOZoB-9gU-36" style="edgeStyle=orthogonalEdgeStyle;rounded=0;orthogonalLoop=1;jettySize=auto;html=1;" edge="1" parent="WIyWlLk6GJQsqaUBKTNV-1" source="12bo6SRUKf3WOZoB-9gU-37" target="12bo6SRUKf3WOZoB-9gU-10">
          <mxGeometry relative="1" as="geometry" />
        </mxCell>
        <mxCell id="12bo6SRUKf3WOZoB-9gU-37" value="" style="rounded=0;whiteSpace=wrap;html=1;" vertex="1" parent="WIyWlLk6GJQsqaUBKTNV-1">
          <mxGeometry x="760" y="420" width="150" height="80" as="geometry" />
        </mxCell>
        <mxCell id="12bo6SRUKf3WOZoB-9gU-38" value="User Account" style="rounded=0;whiteSpace=wrap;html=1;" vertex="1" parent="WIyWlLk6GJQsqaUBKTNV-1">
          <mxGeometry x="1160" y="30" width="120" height="60" as="geometry" />
        </mxCell>
        <mxCell id="12bo6SRUKf3WOZoB-9gU-39" value="Recursive Tree&lt;br&gt;&amp;nbsp;of Java Objects" style="text;html=1;align=center;verticalAlign=middle;resizable=0;points=[];autosize=1;strokeColor=none;fillColor=none;rotation=0;" vertex="1" parent="WIyWlLk6GJQsqaUBKTNV-1">
          <mxGeometry x="750" y="380" width="110" height="40" as="geometry" />
        </mxCell>
        <mxCell id="12bo6SRUKf3WOZoB-9gU-40" style="edgeStyle=orthogonalEdgeStyle;rounded=0;orthogonalLoop=1;jettySize=auto;html=1;entryX=0.5;entryY=1;entryDx=0;entryDy=0;shape=link;" edge="1" parent="WIyWlLk6GJQsqaUBKTNV-1" target="12bo6SRUKf3WOZoB-9gU-26">
          <mxGeometry relative="1" as="geometry">
            <mxPoint x="520" y="540" as="sourcePoint" />
          </mxGeometry>
        </mxCell>
        <mxCell id="12bo6SRUKf3WOZoB-9gU-41" value="rootComponent" style="rounded=1;whiteSpace=wrap;html=1;" vertex="1" parent="WIyWlLk6GJQsqaUBKTNV-1">
          <mxGeometry x="775" y="430" width="120" height="60" as="geometry" />
        </mxCell>
        <mxCell id="12bo6SRUKf3WOZoB-9gU-42" value="FigmaComponent-Processor" style="shape=parallelogram;perimeter=parallelogramPerimeter;whiteSpace=wrap;html=1;fixedSize=1;" vertex="1" parent="WIyWlLk6GJQsqaUBKTNV-1">
          <mxGeometry x="450" y="535" width="140" height="60" as="geometry" />
        </mxCell>
        <mxCell id="12bo6SRUKf3WOZoB-9gU-43" style="edgeStyle=orthogonalEdgeStyle;rounded=0;orthogonalLoop=1;jettySize=auto;html=1;exitX=1;exitY=0.5;exitDx=0;exitDy=0;shape=link;" edge="1" parent="WIyWlLk6GJQsqaUBKTNV-1" target="12bo6SRUKf3WOZoB-9gU-10">
          <mxGeometry relative="1" as="geometry">
            <mxPoint x="910" y="580" as="sourcePoint" />
            <Array as="points">
              <mxPoint x="1010" y="580" />
            </Array>
          </mxGeometry>
        </mxCell>
        <mxCell id="12bo6SRUKf3WOZoB-9gU-44" style="edgeStyle=orthogonalEdgeStyle;rounded=0;orthogonalLoop=1;jettySize=auto;html=1;shape=link;" edge="1" parent="WIyWlLk6GJQsqaUBKTNV-1" source="12bo6SRUKf3WOZoB-9gU-47">
          <mxGeometry relative="1" as="geometry">
            <mxPoint x="1010" y="490" as="targetPoint" />
          </mxGeometry>
        </mxCell>
        <mxCell id="12bo6SRUKf3WOZoB-9gU-45" style="edgeStyle=orthogonalEdgeStyle;rounded=0;orthogonalLoop=1;jettySize=auto;html=1;entryX=0.5;entryY=0;entryDx=0;entryDy=0;" edge="1" parent="WIyWlLk6GJQsqaUBKTNV-1" source="12bo6SRUKf3WOZoB-9gU-47">
          <mxGeometry relative="1" as="geometry">
            <mxPoint x="760" y="770" as="targetPoint" />
          </mxGeometry>
        </mxCell>
        <mxCell id="12bo6SRUKf3WOZoB-9gU-46" style="edgeStyle=orthogonalEdgeStyle;rounded=0;orthogonalLoop=1;jettySize=auto;html=1;entryX=0.5;entryY=0;entryDx=0;entryDy=0;" edge="1" parent="WIyWlLk6GJQsqaUBKTNV-1" source="12bo6SRUKf3WOZoB-9gU-47" target="12bo6SRUKf3WOZoB-9gU-53">
          <mxGeometry relative="1" as="geometry" />
        </mxCell>
        <mxCell id="12bo6SRUKf3WOZoB-9gU-47" value="ComponentFiller" style="shape=parallelogram;perimeter=parallelogramPerimeter;whiteSpace=wrap;html=1;fixedSize=1;" vertex="1" parent="WIyWlLk6GJQsqaUBKTNV-1">
          <mxGeometry x="810" y="670" width="140" height="60" as="geometry" />
        </mxCell>
        <mxCell id="12bo6SRUKf3WOZoB-9gU-48" style="edgeStyle=orthogonalEdgeStyle;rounded=0;orthogonalLoop=1;jettySize=auto;html=1;entryX=1;entryY=0.5;entryDx=0;entryDy=0;" edge="1" parent="WIyWlLk6GJQsqaUBKTNV-1" source="12bo6SRUKf3WOZoB-9gU-50" target="12bo6SRUKf3WOZoB-9gU-51">
          <mxGeometry relative="1" as="geometry">
            <mxPoint x="780" y="640" as="targetPoint" />
          </mxGeometry>
        </mxCell>
        <mxCell id="12bo6SRUKf3WOZoB-9gU-49" style="edgeStyle=orthogonalEdgeStyle;rounded=0;orthogonalLoop=1;jettySize=auto;html=1;shape=link;" edge="1" parent="WIyWlLk6GJQsqaUBKTNV-1" source="12bo6SRUKf3WOZoB-9gU-50">
          <mxGeometry relative="1" as="geometry">
            <mxPoint x="1010" y="490" as="targetPoint" />
          </mxGeometry>
        </mxCell>
        <mxCell id="12bo6SRUKf3WOZoB-9gU-50" value="ComponentGenerator" style="shape=parallelogram;perimeter=parallelogramPerimeter;whiteSpace=wrap;html=1;fixedSize=1;" vertex="1" parent="WIyWlLk6GJQsqaUBKTNV-1">
          <mxGeometry x="810" y="610" width="140" height="60" as="geometry" />
        </mxCell>
        <mxCell id="12bo6SRUKf3WOZoB-9gU-51" value="Process-Builder" style="rhombus;whiteSpace=wrap;html=1;" vertex="1" parent="WIyWlLk6GJQsqaUBKTNV-1">
          <mxGeometry x="640" y="600" width="80" height="80" as="geometry" />
        </mxCell>
        <mxCell id="12bo6SRUKf3WOZoB-9gU-52" value="ruleSet" style="rounded=1;whiteSpace=wrap;html=1;" vertex="1" parent="WIyWlLk6GJQsqaUBKTNV-1">
          <mxGeometry x="700" y="740" width="120" height="60" as="geometry" />
        </mxCell>
        <mxCell id="12bo6SRUKf3WOZoB-9gU-53" value="templates" style="rounded=1;whiteSpace=wrap;html=1;" vertex="1" parent="WIyWlLk6GJQsqaUBKTNV-1">
          <mxGeometry x="540" y="740" width="120" height="60" as="geometry" />
        </mxCell>
        <mxCell id="12bo6SRUKf3WOZoB-9gU-54" style="edgeStyle=orthogonalEdgeStyle;rounded=0;orthogonalLoop=1;jettySize=auto;html=1;entryX=0;entryY=0.5;entryDx=0;entryDy=0;" edge="1" parent="WIyWlLk6GJQsqaUBKTNV-1" source="12bo6SRUKf3WOZoB-9gU-55" target="12bo6SRUKf3WOZoB-9gU-37">
          <mxGeometry relative="1" as="geometry" />
        </mxCell>
        <mxCell id="12bo6SRUKf3WOZoB-9gU-55" value="JsonSegmenter" style="rounded=0;whiteSpace=wrap;html=1;" vertex="1" parent="WIyWlLk6GJQsqaUBKTNV-1">
          <mxGeometry x="610" y="430" width="120" height="60" as="geometry" />
        </mxCell>
        <mxCell id="12bo6SRUKf3WOZoB-9gU-56" value="" style="edgeStyle=orthogonalEdgeStyle;rounded=0;orthogonalLoop=1;jettySize=auto;html=1;shape=link;" edge="1" parent="WIyWlLk6GJQsqaUBKTNV-1" source="12bo6SRUKf3WOZoB-9gU-58" target="12bo6SRUKf3WOZoB-9gU-61">
          <mxGeometry relative="1" as="geometry">
            <Array as="points">
              <mxPoint x="1230" y="640" />
              <mxPoint x="1230" y="640" />
            </Array>
          </mxGeometry>
        </mxCell>
        <mxCell id="12bo6SRUKf3WOZoB-9gU-57" style="edgeStyle=orthogonalEdgeStyle;rounded=0;orthogonalLoop=1;jettySize=auto;html=1;entryX=0;entryY=0.5;entryDx=0;entryDy=0;" edge="1" parent="WIyWlLk6GJQsqaUBKTNV-1" source="12bo6SRUKf3WOZoB-9gU-58" target="12bo6SRUKf3WOZoB-9gU-32">
          <mxGeometry relative="1" as="geometry" />
        </mxCell>
        <mxCell id="12bo6SRUKf3WOZoB-9gU-58" value="ScreenGenerator" style="rounded=0;whiteSpace=wrap;html=1;" vertex="1" parent="WIyWlLk6GJQsqaUBKTNV-1">
          <mxGeometry x="1160" y="490" width="120" height="60" as="geometry" />
        </mxCell>
        <mxCell id="12bo6SRUKf3WOZoB-9gU-59" value="ComponentGrouper" style="shape=parallelogram;perimeter=parallelogramPerimeter;whiteSpace=wrap;html=1;fixedSize=1;" vertex="1" parent="WIyWlLk6GJQsqaUBKTNV-1">
          <mxGeometry x="810" y="550" width="140" height="60" as="geometry" />
        </mxCell>
        <mxCell id="12bo6SRUKf3WOZoB-9gU-60" style="edgeStyle=orthogonalEdgeStyle;rounded=0;orthogonalLoop=1;jettySize=auto;html=1;shape=link;" edge="1" parent="WIyWlLk6GJQsqaUBKTNV-1" source="12bo6SRUKf3WOZoB-9gU-61" target="12bo6SRUKf3WOZoB-9gU-50">
          <mxGeometry relative="1" as="geometry" />
        </mxCell>
        <mxCell id="12bo6SRUKf3WOZoB-9gU-61" value="ComponentPlacer" style="shape=parallelogram;perimeter=parallelogramPerimeter;whiteSpace=wrap;html=1;fixedSize=1;" vertex="1" parent="WIyWlLk6GJQsqaUBKTNV-1">
          <mxGeometry x="1150" y="610" width="140" height="60" as="geometry" />
        </mxCell>
        <mxCell id="12bo6SRUKf3WOZoB-9gU-62" style="edgeStyle=orthogonalEdgeStyle;rounded=0;orthogonalLoop=1;jettySize=auto;html=1;entryX=0.5;entryY=1;entryDx=0;entryDy=0;dashed=1;" edge="1" parent="WIyWlLk6GJQsqaUBKTNV-1" source="12bo6SRUKf3WOZoB-9gU-64" target="12bo6SRUKf3WOZoB-9gU-52">
          <mxGeometry relative="1" as="geometry" />
        </mxCell>
        <mxCell id="12bo6SRUKf3WOZoB-9gU-63" style="edgeStyle=orthogonalEdgeStyle;rounded=0;orthogonalLoop=1;jettySize=auto;html=1;entryX=0.5;entryY=1;entryDx=0;entryDy=0;dashed=1;" edge="1" parent="WIyWlLk6GJQsqaUBKTNV-1" source="12bo6SRUKf3WOZoB-9gU-64" target="12bo6SRUKf3WOZoB-9gU-53">
          <mxGeometry relative="1" as="geometry" />
        </mxCell>
        <mxCell id="12bo6SRUKf3WOZoB-9gU-64" value="StyleGuide Project" style="rounded=0;whiteSpace=wrap;html=1;fillColor=#dae8fc;strokeColor=#6c8ebf;" vertex="1" parent="WIyWlLk6GJQsqaUBKTNV-1">
          <mxGeometry x="620" y="840" width="120" height="60" as="geometry" />
        </mxCell>
        <mxCell id="12bo6SRUKf3WOZoB-9gU-65" value="How can we group components?" style="shape=note;whiteSpace=wrap;html=1;backgroundOutline=1;darkOpacity=0.05;" vertex="1" parent="WIyWlLk6GJQsqaUBKTNV-1">
          <mxGeometry x="1260" y="660" width="90" height="120" as="geometry" />
        </mxCell>
      </root>
    </mxGraphModel>
  </diagram>
</mxfile>
